# xmcd CD database file
#
# Track frame offsets:
#	150
#	16425
#	31950
#	46987
#	60125
#	78000
#	93512
#	109975
#	129575
#	146612
#	161237
#	174617
#	185100
#	197517
#	214787
#	232630
#	249425
#	264825
#	277800
#
# Disc length: 3947 seconds
#
# Revision: 1
# Processed by: cddbd v1.5.1PL2 Copyright (c) Steve Scherf et al.
# Submitted via: CDex 1.51
#
DISCID=f80f6913
DTITLE=Ella Fitzgerald - The Songbooks
DYEAR=1956
DGENRE=Jazz
TTITLE0=Nice Work If You Can Get It
TTITLE1=Fascinating Rhythm
TTITLE2=All the Things You Are
TTITLE3=Yesterdays
TTITLE4=Can't Help Lovin' Dat Man
TTITLE5=Come Rain or Come Shine
TTITLE6=It's Only a Paper Moon
TTITLE7=Over the Rainbow
TTITLE8=Laura
TTITLE9=Skylark
TTITLE10=This Time the Dream's on Me
TTITLE11=Puttin' on the Ritz
TTITLE12=Alexander's Ragtime Band
TTITLE13=Cheek to Cheek
TTITLE14=My Funny Valentine
TTITLE15=Have You Met Miss Jones
TTITLE16=Lady Is a Tramp
TTITLE17=Manhattan
TTITLE18=Lady Be Good
EXTD=YEAR: 1956
EXTT0=
EXTT1=
EXTT2=
EXTT3=
EXTT4=
EXTT5=
EXTT6=
EXTT7=
EXTT8=
EXTT9=
EXTT10=
EXTT11=
EXTT12=
EXTT13=
EXTT14=
EXTT15=
EXTT16=
EXTT17=
EXTT18=
PLAYORDER=
